<mxfile host="app.diagrams.net" agent="Mozilla/5.0 (Windows NT 10.0; Win64; x64) AppleWebKit/537.36 (KHTML, like Gecko) Chrome/129.0.0.0 Safari/537.36" version="24.7.16">
  <diagram id="C5RBs43oDa-KdzZeNtuy" name="Page-1">
    <mxGraphModel dx="1105" dy="586" grid="1" gridSize="10" guides="1" tooltips="1" connect="1" arrows="1" fold="1" page="1" pageScale="1" pageWidth="827" pageHeight="1169" math="0" shadow="0">
      <root>
        <mxCell id="WIyWlLk6GJQsqaUBKTNV-0" />
        <mxCell id="WIyWlLk6GJQsqaUBKTNV-1" parent="WIyWlLk6GJQsqaUBKTNV-0" />
        <mxCell id="fkqyU2uOEyWeUTlzgY2_-2" value="" style="edgeStyle=orthogonalEdgeStyle;rounded=0;orthogonalLoop=1;jettySize=auto;html=1;" parent="WIyWlLk6GJQsqaUBKTNV-1" source="fkqyU2uOEyWeUTlzgY2_-0" target="fkqyU2uOEyWeUTlzgY2_-1" edge="1">
          <mxGeometry relative="1" as="geometry" />
        </mxCell>
        <mxCell id="fkqyU2uOEyWeUTlzgY2_-0" value="Login" style="rounded=1;whiteSpace=wrap;html=1;" parent="WIyWlLk6GJQsqaUBKTNV-1" vertex="1">
          <mxGeometry x="360" y="180" width="120" height="60" as="geometry" />
        </mxCell>
        <mxCell id="fkqyU2uOEyWeUTlzgY2_-4" value="" style="edgeStyle=orthogonalEdgeStyle;rounded=0;orthogonalLoop=1;jettySize=auto;html=1;" parent="WIyWlLk6GJQsqaUBKTNV-1" source="fkqyU2uOEyWeUTlzgY2_-1" target="fkqyU2uOEyWeUTlzgY2_-3" edge="1">
          <mxGeometry relative="1" as="geometry" />
        </mxCell>
        <mxCell id="RlgzOOhDZaaeRpsH-Qq_-4" value="" style="edgeStyle=orthogonalEdgeStyle;rounded=0;orthogonalLoop=1;jettySize=auto;html=1;movable=0;resizable=0;rotatable=0;deletable=0;editable=0;locked=1;connectable=0;" edge="1" parent="WIyWlLk6GJQsqaUBKTNV-1" source="fkqyU2uOEyWeUTlzgY2_-1" target="RlgzOOhDZaaeRpsH-Qq_-3">
          <mxGeometry relative="1" as="geometry" />
        </mxCell>
        <mxCell id="fkqyU2uOEyWeUTlzgY2_-1" value="Pemasukkan stock Barang" style="whiteSpace=wrap;html=1;rounded=1;" parent="WIyWlLk6GJQsqaUBKTNV-1" vertex="1">
          <mxGeometry x="360" y="340" width="120" height="60" as="geometry" />
        </mxCell>
        <mxCell id="fkqyU2uOEyWeUTlzgY2_-6" value="" style="edgeStyle=orthogonalEdgeStyle;rounded=0;orthogonalLoop=1;jettySize=auto;html=1;" parent="WIyWlLk6GJQsqaUBKTNV-1" source="fkqyU2uOEyWeUTlzgY2_-3" target="fkqyU2uOEyWeUTlzgY2_-5" edge="1">
          <mxGeometry relative="1" as="geometry" />
        </mxCell>
        <mxCell id="fkqyU2uOEyWeUTlzgY2_-10" value="" style="edgeStyle=orthogonalEdgeStyle;rounded=0;orthogonalLoop=1;jettySize=auto;html=1;" parent="WIyWlLk6GJQsqaUBKTNV-1" source="fkqyU2uOEyWeUTlzgY2_-3" target="fkqyU2uOEyWeUTlzgY2_-9" edge="1">
          <mxGeometry relative="1" as="geometry" />
        </mxCell>
        <mxCell id="fkqyU2uOEyWeUTlzgY2_-3" value="Pembelian barang" style="whiteSpace=wrap;html=1;rounded=1;" parent="WIyWlLk6GJQsqaUBKTNV-1" vertex="1">
          <mxGeometry x="360" y="480" width="120" height="60" as="geometry" />
        </mxCell>
        <mxCell id="fkqyU2uOEyWeUTlzgY2_-8" value="" style="edgeStyle=orthogonalEdgeStyle;rounded=0;orthogonalLoop=1;jettySize=auto;html=1;" parent="WIyWlLk6GJQsqaUBKTNV-1" source="fkqyU2uOEyWeUTlzgY2_-5" target="fkqyU2uOEyWeUTlzgY2_-7" edge="1">
          <mxGeometry relative="1" as="geometry" />
        </mxCell>
        <mxCell id="fkqyU2uOEyWeUTlzgY2_-5" value="informasi pembelian" style="whiteSpace=wrap;html=1;rounded=1;" parent="WIyWlLk6GJQsqaUBKTNV-1" vertex="1">
          <mxGeometry x="360" y="620" width="120" height="60" as="geometry" />
        </mxCell>
        <mxCell id="RlgzOOhDZaaeRpsH-Qq_-7" value="" style="edgeStyle=orthogonalEdgeStyle;rounded=0;orthogonalLoop=1;jettySize=auto;html=1;" edge="1" parent="WIyWlLk6GJQsqaUBKTNV-1" source="fkqyU2uOEyWeUTlzgY2_-7" target="RlgzOOhDZaaeRpsH-Qq_-6">
          <mxGeometry relative="1" as="geometry" />
        </mxCell>
        <mxCell id="fkqyU2uOEyWeUTlzgY2_-7" value="Hasil penjualan" style="whiteSpace=wrap;html=1;rounded=1;" parent="WIyWlLk6GJQsqaUBKTNV-1" vertex="1">
          <mxGeometry x="360" y="760" width="120" height="60" as="geometry" />
        </mxCell>
        <mxCell id="fkqyU2uOEyWeUTlzgY2_-12" value="" style="edgeStyle=orthogonalEdgeStyle;rounded=0;orthogonalLoop=1;jettySize=auto;html=1;" parent="WIyWlLk6GJQsqaUBKTNV-1" source="fkqyU2uOEyWeUTlzgY2_-9" target="fkqyU2uOEyWeUTlzgY2_-11" edge="1">
          <mxGeometry relative="1" as="geometry" />
        </mxCell>
        <mxCell id="fkqyU2uOEyWeUTlzgY2_-9" value="Barang habis" style="rhombus;whiteSpace=wrap;html=1;rounded=1;" parent="WIyWlLk6GJQsqaUBKTNV-1" vertex="1">
          <mxGeometry x="580" y="470" width="80" height="80" as="geometry" />
        </mxCell>
        <mxCell id="RlgzOOhDZaaeRpsH-Qq_-1" value="" style="edgeStyle=orthogonalEdgeStyle;rounded=0;orthogonalLoop=1;jettySize=auto;html=1;" edge="1" parent="WIyWlLk6GJQsqaUBKTNV-1" source="fkqyU2uOEyWeUTlzgY2_-11" target="RlgzOOhDZaaeRpsH-Qq_-0">
          <mxGeometry relative="1" as="geometry" />
        </mxCell>
        <mxCell id="fkqyU2uOEyWeUTlzgY2_-11" value="Pembelian stock barang baru" style="whiteSpace=wrap;html=1;rounded=1;" parent="WIyWlLk6GJQsqaUBKTNV-1" vertex="1">
          <mxGeometry x="740" y="480" width="120" height="60" as="geometry" />
        </mxCell>
        <mxCell id="RlgzOOhDZaaeRpsH-Qq_-2" style="edgeStyle=orthogonalEdgeStyle;rounded=0;orthogonalLoop=1;jettySize=auto;html=1;entryX=1;entryY=0.5;entryDx=0;entryDy=0;" edge="1" parent="WIyWlLk6GJQsqaUBKTNV-1" source="RlgzOOhDZaaeRpsH-Qq_-0" target="fkqyU2uOEyWeUTlzgY2_-1">
          <mxGeometry relative="1" as="geometry" />
        </mxCell>
        <mxCell id="RlgzOOhDZaaeRpsH-Qq_-0" value="Pengeluaran uang" style="whiteSpace=wrap;html=1;rounded=1;" vertex="1" parent="WIyWlLk6GJQsqaUBKTNV-1">
          <mxGeometry x="740" y="340" width="120" height="60" as="geometry" />
        </mxCell>
        <mxCell id="RlgzOOhDZaaeRpsH-Qq_-3" value="Laba" style="whiteSpace=wrap;html=1;rounded=1;movable=1;resizable=1;rotatable=1;deletable=1;editable=1;locked=0;connectable=1;" vertex="1" parent="WIyWlLk6GJQsqaUBKTNV-1">
          <mxGeometry x="150" y="340" width="120" height="60" as="geometry" />
        </mxCell>
        <mxCell id="RlgzOOhDZaaeRpsH-Qq_-6" value="Laporan Keuangan" style="whiteSpace=wrap;html=1;rounded=1;" vertex="1" parent="WIyWlLk6GJQsqaUBKTNV-1">
          <mxGeometry x="150" y="760" width="120" height="60" as="geometry" />
        </mxCell>
        <mxCell id="RlgzOOhDZaaeRpsH-Qq_-8" style="edgeStyle=orthogonalEdgeStyle;rounded=0;orthogonalLoop=1;jettySize=auto;html=1;entryX=0.5;entryY=0;entryDx=0;entryDy=0;" edge="1" parent="WIyWlLk6GJQsqaUBKTNV-1" source="RlgzOOhDZaaeRpsH-Qq_-3" target="RlgzOOhDZaaeRpsH-Qq_-6">
          <mxGeometry relative="1" as="geometry" />
        </mxCell>
      </root>
    </mxGraphModel>
  </diagram>
</mxfile>
